<svg width="48" height="48" viewBox="0 0 48 48" fill="none" xmlns="http://www.w3.org/2000/svg">
<g clip-path="url(#clip0_94_142)">
<rect width="48" height="48" rx="10" fill="#FDE047"/>
<rect x="-36.5166" y="-20.9814" width="120.454" height="90.3408" rx="45.1704" fill="#FDE047"/>
<path d="M15.856 10.749C17.0096 10.6363 20.63 10.6746 21.9674 10.6956C25.536 10.8451 29.4947 10.3887 33.0028 10.9806C38.4363 11.9237 42.2791 16.0879 42.9833 20.9054C43.1537 22.0715 43.052 23.0518 43.1482 24.1596C43.7838 31.4817 39.4578 36.8648 30.8911 37.8463C29.4536 38.066 25.5096 37.8718 23.8741 37.8731C18.1975 37.8772 12.5697 38.5913 8.05836 34.8332C5.49293 32.6962 4.08403 30.0009 3.9244 26.8215C3.77463 22.2994 3.47143 17.9618 7.2023 14.4094C9.67709 12.0529 12.2928 10.9213 15.856 10.749ZM31.6239 33.9852C38.5647 32.7693 39.2897 28.0303 38.9403 22.7376C38.7497 19.8506 37.7272 17.3157 34.9556 15.7039C33.9388 15.115 32.7947 14.7252 31.598 14.56C30.3467 14.3809 28.7296 14.4273 27.4377 14.4277L21.4551 14.4333C20.3913 14.4317 15.9742 14.3668 15.2171 14.4892C8.05132 15.4867 7.2356 22.1505 8.01435 27.4028C8.50156 30.6885 11.4172 33.5484 15.1728 33.9566C18.1039 34.2754 21.1351 34.0456 24.0883 34.1144C25.9639 34.1153 29.9861 34.2089 31.6239 33.9852Z" fill="black"/>
<path d="M16.6535 19.1759C19.4252 19.0774 19.0667 20.8139 19.0292 22.6624C19.7832 22.6625 21.8534 22.4882 22.5458 23.0199C23.5169 23.7657 23.1724 25.3754 21.8689 25.6477C21.1715 25.7934 19.8553 25.7327 19.0173 25.7257C19.0318 26.4448 19.0113 26.9978 18.9673 27.7116C18.6234 28.2109 18.4151 28.3919 17.8699 28.6779C15.3234 29.0357 15.3611 27.4004 15.5004 25.7192C14.5452 25.7236 12.8524 25.8969 12.1067 25.3378C11.4164 24.8204 11.5244 23.539 12.1739 23.0244C12.8592 22.4815 14.5767 22.6519 15.4471 22.6594C15.4396 21.2251 15.0526 19.9559 16.6535 19.1759Z" fill="black"/>
<path d="M30.7712 26.086C31.8685 25.8051 33.0112 26.3788 33.3164 27.3638C33.6216 28.3488 32.9724 29.3679 31.8705 29.6337C30.7804 29.8967 29.6576 29.3228 29.3556 28.3485C29.0538 27.3741 29.6858 26.3639 30.7712 26.086Z" fill="black"/>
<path d="M30.8473 19.2125C31.5584 19.058 32.3073 19.2578 32.8081 19.7356C33.3089 20.2135 33.4842 20.8957 33.267 21.5216C33.0499 22.1474 32.4739 22.6205 31.7589 22.76C30.6715 22.9721 29.5958 22.3612 29.3462 21.3897C29.0965 20.4183 29.7657 19.4476 30.8473 19.2125Z" fill="black"/>
</g>
<defs>
<clipPath id="clip0_94_142">
<rect width="48" height="48" rx="10" fill="white"/>
</clipPath>
</defs>
</svg>
