<svg version="1.1" xmlns="http://www.w3.org/2000/svg" style="display: block;" viewBox="0 0 2048 2048" width="1024" height="1024" preserveAspectRatio="none">
<path transform="translate(0,0)" fill="rgb(0,0,0)" d="M 197.143 827.423 C 203.504 826.263 214.488 826.778 221.265 826.787 L 265.718 826.892 L 343.982 826.85 C 366.492 826.817 387.626 825.965 409.838 829.653 C 465.345 838.867 502.482 883.24 508.864 938.1 C 510.877 954.095 509.902 970.477 510.183 986.519 C 510.895 1027.2 510.397 1066.91 483.613 1100.35 C 460.779 1128.86 430.73 1141.48 395.231 1145.9 C 352.055 1146.24 308.878 1146.33 265.702 1146.2 C 216.365 1146.2 165.327 1152.91 124.883 1119.26 C 82.4744 1083.98 80.2957 1035.14 82.031 984.13 C 82.5767 968.089 81.1299 951.505 82.7529 935.445 C 90.6521 873.574 135.712 832.089 197.143 827.423 z M 392.759 1100.44 C 455.291 1093.78 469.541 1043.08 467.425 989.425 C 465.958 952.208 468.2 916.783 435.242 890.4 C 408.125 868.465 374.794 872.034 341.885 872.133 L 277.389 872.304 L 227.499 872.128 C 220.296 872.113 208.709 871.52 201.745 872.396 C 178.061 875.088 159.459 881.846 143.952 901.19 C 122.785 927.64 124.235 957.694 123.933 989.249 C 123.586 1025.46 123.783 1061.13 155.108 1085.7 C 178.908 1104.38 211.408 1102.07 239.875 1102.08 L 303.752 1102.07 C 321.55 1102.06 374.699 1103.04 389.462 1100.95 C 390.564 1100.8 391.663 1100.63 392.759 1100.44 z"/>
<path transform="translate(0,0)" fill="rgb(0,0,0)" d="M 216.494 922.137 C 245.919 920.439 240.311 949.762 240.081 970.013 C 256.232 969.888 265.974 965.763 277.542 978.991 C 285.482 1009.42 261.568 1008.39 240.061 1007.99 C 240.316 1024.28 243.332 1040.6 225.491 1048.04 C 198.213 1048.3 201.73 1027.91 202.06 1008.02 C 193.076 1008.07 184.091 1008.02 175.108 1007.88 C 162.246 1000.77 157.344 986.656 167.684 975.296 C 174.472 967.838 192.668 969.84 201.932 969.938 C 202.554 950.163 195.375 931.769 216.494 922.137 z"/>
<path transform="translate(0,0)" fill="rgb(0,0,0)" d="M 375.527 1013.54 C 382.751 1011.68 390.413 1013.91 395.516 1019.35 C 400.619 1024.79 402.354 1032.58 400.043 1039.67 C 397.731 1046.76 391.74 1052.03 384.412 1053.42 C 378.544 1054.53 372.483 1053.02 367.823 1049.29 C 363.163 1045.55 360.369 1039.97 360.177 1034 C 359.868 1024.42 366.248 1015.92 375.527 1013.54 z"/>
<path transform="translate(0,0)" fill="rgb(0,0,0)" d="M 384.441 922.052 C 393.802 921.739 402.522 925.69 405.863 934.97 C 407.715 940.278 407.41 946.101 405.014 951.186 C 401.543 958.642 396.816 961.085 389.476 963.527 C 380.98 963.669 372.659 958.657 369.548 950.6 C 367.422 944.953 367.746 938.675 370.444 933.277 C 373.741 926.663 377.828 924.327 384.441 922.052 z"/>
<path transform="translate(0,0)" fill="rgb(0,0,0)" d="M 1601.75 833.346 C 1613.79 830.291 1633.2 836.602 1644.04 842.561 C 1664.26 853.841 1676.92 879.225 1681.54 900.627 C 1689.09 935.612 1689.36 972.092 1687.43 1007.83 C 1684.76 1057.31 1674.76 1107.03 1619.9 1119.72 C 1554.63 1126.8 1531.89 1069.65 1530.36 1014.45 C 1528.7 954.009 1520.97 844.553 1601.75 833.346 z M 1615.84 1068.43 C 1648.28 1051.67 1641.93 990.748 1641.62 959.131 C 1641.38 934.187 1638.43 880.345 1602.58 884.067 C 1591.33 889.68 1586.75 895.229 1582.81 907.152 C 1573.29 935.959 1571.41 1025.22 1585.64 1052.21 C 1589.33 1059.2 1595.07 1065.39 1602.8 1067.78 C 1606.94 1069.06 1611.57 1068.91 1615.84 1068.43 z"/>
<path transform="translate(0,0)" fill="rgb(0,0,0)" d="M 1863.94 842.213 C 1881.87 841.383 1903.39 842.384 1921.63 841.944 C 1930.56 841.729 1958.69 841.495 1965.69 842.809 C 1971.44 843.869 1976.78 846.514 1981.11 850.447 C 1985.94 854.873 1989.85 861.983 1989.65 868.625 C 1988.59 903.174 1950.88 898.127 1926.98 898.103 C 1911.58 898.088 1897.02 898.068 1882.1 898.055 C 1882.29 917.033 1882.3 936.013 1882.13 954.991 C 1906.31 954.786 1931.95 953.398 1955.83 955.857 C 1967.4 957.048 1977.38 968.094 1976.08 980.014 C 1973.21 1006.22 1944.09 1003.51 1924.73 1003.4 C 1910.42 1003.32 1896.35 1003.24 1882.19 1003.13 C 1882.29 1022.56 1882.26 1041.99 1882.08 1061.41 L 1891.75 1060.93 C 1911.04 1060.86 1976.19 1057.78 1989.74 1064.73 C 1997.2 1068.57 2001.32 1075.27 2003.68 1083.16 C 2005.57 1089.46 2003.79 1097.48 2000.56 1103.05 C 1996.6 1109.85 1989.16 1114.87 1981.66 1116.87 C 1972.51 1119.31 1883.59 1119.33 1870.46 1117.84 C 1863.39 1117.03 1856.22 1115.4 1850.01 1111.81 C 1839.22 1105.58 1832.23 1093.37 1829.49 1081.45 C 1826.58 1068.82 1827.98 1053.87 1827.99 1040.95 L 1827.97 982.229 L 1827.99 921.255 C 1828.01 886.652 1821.86 852.283 1863.94 842.213 z"/>
<path transform="translate(0,0)" fill="rgb(0,0,0)" d="M 1242.76 1018.17 C 1306.57 1016.21 1371.89 1019.57 1435.74 1017.93 C 1464.92 1017.18 1492.42 1028.89 1487.45 1062.78 C 1481.73 1101.9 1426.14 1094.25 1397.99 1094.32 C 1368.28 1094.64 1338.58 1094.66 1308.87 1094.38 C 1299.91 1094.31 1269.45 1089.84 1269.49 1101.82 C 1276.14 1109.66 1314.3 1106.7 1326.28 1106.69 L 1431.98 1106.5 C 1443.33 1106.45 1469.06 1104.98 1478.3 1108.34 C 1492.53 1113.5 1491.65 1135.43 1474.63 1141.38 C 1468.79 1142.42 1453.46 1142.09 1446.71 1142.09 L 1397.26 1142.13 L 1304.97 1142.12 C 1287.26 1142.11 1247.2 1146.48 1235.28 1131.87 C 1225.89 1120.36 1225.59 1073.63 1243.47 1067.78 C 1257.62 1063.16 1281.93 1064.72 1297.36 1064.74 L 1395.62 1064.81 C 1405.24 1064.81 1443.75 1066.47 1449.7 1061.45 C 1450.78 1058.29 1450.79 1059.85 1449.49 1056.61 C 1446.54 1053.9 1442.7 1052.07 1438.77 1052.01 C 1423.5 1051.77 1407.25 1052.06 1391.98 1052.08 L 1282.99 1052.15 C 1270.4 1052.15 1236.93 1056.05 1231.39 1042.22 C 1226.77 1030.71 1232.26 1023 1242.76 1018.17 z"/>
<path transform="translate(0,0)" fill="rgb(0,0,0)" d="M 1258.98 836.273 C 1260.82 836.131 1262.67 836.034 1264.52 835.982 C 1299.17 835.072 1292.91 874.485 1292.48 898.061 C 1329.41 897.504 1366.82 898.222 1403.86 897.919 C 1422.94 898.35 1442.71 896.973 1461.66 898.757 C 1471.79 899.71 1481.71 911.713 1481.62 921.758 C 1482.37 931.065 1471.59 941.678 1462.34 942.461 C 1440.22 944.33 1414.18 943.302 1392 943.354 C 1389.75 946.525 1381.56 959.152 1390.58 959.735 C 1421.12 961.706 1452.52 957.971 1482.97 961.082 C 1485.88 961.379 1490.25 964.22 1492.69 965.791 C 1500.79 978.749 1499.7 985.998 1490.04 997.108 C 1477.12 1002.01 1451.07 1000.42 1436.04 1000.32 C 1392.96 1000.95 1349.53 1000.18 1306.34 1000.43 C 1285.76 999.66 1259.57 1001.99 1239.43 999.417 C 1219.46 994.809 1215.18 967.188 1237.8 961.259 C 1255.38 956.65 1343.91 963.708 1351.58 958.66 C 1352.87 954.854 1352.5 950.917 1350.66 947.326 C 1350.14 946.322 1348.96 944.757 1347.9 944.299 C 1336 939.11 1279.43 948.116 1259.54 940.9 C 1252.21 938.241 1245.86 933.046 1242.74 925.792 C 1238.54 916.048 1238.2 860.416 1241.85 851.301 C 1244.97 843.513 1251.57 839.378 1258.98 836.273 z"/>
<path transform="translate(0,0)" fill="rgb(0,0,0)" d="M 1001.32 1023.43 C 1011.39 1021.49 1035.63 1022.91 1046.75 1022.87 C 1086.87 1022.73 1172.84 1017.36 1176.73 1074.93 C 1177.58 1087.69 1173.27 1100.25 1164.77 1109.8 C 1150.11 1126.46 1123.98 1132.61 1102.77 1134.33 C 1084.93 1136.36 1067.35 1136.06 1049.43 1136.19 C 1017.16 1136.43 969.889 1137.16 943.505 1114.97 C 933.476 1106.61 927.243 1094.55 926.215 1081.53 C 922.837 1036.8 966.46 1025.92 1001.32 1023.43 z M 1093.31 1093.61 C 1101.59 1092.56 1118.35 1091.29 1122.49 1084.68 C 1141.36 1054.53 1063.9 1060.12 1051.96 1060.01 C 1037.24 1059.88 1023.18 1059.48 1010.38 1060.42 C 1001.42 1061.33 987.947 1061.34 981.481 1068.7 C 979.33 1071.15 977.369 1074.46 977.572 1077.83 C 977.795 1081.52 980.659 1084.38 983.557 1086.32 C 999.878 1097.22 1072.36 1094.96 1093.31 1093.61 z"/>
<path transform="translate(0,0)" fill="rgb(0,0,0)" d="M 688.003 1023.58 C 703.229 1021.82 721.715 1022.92 737.318 1022.78 C 775.7 1022.46 862.538 1017.83 866.218 1073.64 C 867.173 1086.71 862.836 1099.62 854.182 1109.46 C 839.722 1125.85 813.815 1132.95 792.771 1134.16 C 791.97 1134.26 791.169 1134.37 790.367 1134.47 C 775.129 1136.36 757.119 1136.25 741.321 1136.15 C 707.39 1135.94 662.703 1138.13 634.321 1116.69 C 624.369 1108.73 617.122 1096.84 616.233 1084.01 C 613.119 1039.1 652.478 1026.83 688.003 1023.58 z M 784.991 1092.89 C 829.653 1087.25 819.23 1062.54 786.233 1060.79 C 760.303 1059.41 725.276 1058.69 699.483 1060.39 C 688.261 1061.62 668.26 1061.96 667.553 1078.05 C 667.208 1085.92 685.032 1092.25 691.213 1092.44 C 717.152 1093.22 760.364 1097.18 784.991 1092.89 z"/>
<path transform="translate(0,0)" fill="rgb(0,0,0)" d="M 1763.61 834.183 C 1784.25 833.351 1793.57 845.409 1793.85 865.139 C 1794.06 879.263 1794.01 893.363 1794.01 907.49 L 1794.04 987.718 L 1794.06 1066.33 C 1794.06 1081.74 1794.22 1097.1 1793.75 1112.52 C 1793.26 1128.55 1784.75 1135.26 1770.51 1139.9 C 1763.22 1140.13 1762.36 1139.42 1756.05 1137.12 C 1750.67 1135.15 1741.38 1125.01 1741.06 1120 C 1739.19 1090.96 1740.01 1052.43 1740 1024.09 L 1740.02 917.735 C 1740.03 898.274 1739.87 878.566 1740.32 859.114 C 1740.42 855.019 1741.19 851.867 1743.33 848.395 C 1748.67 839.711 1754.14 836.614 1763.61 834.183 z"/>
<path transform="translate(0,0)" fill="rgb(0,0,0)" d="M 992.513 838.14 C 1026.91 836.543 1023.23 862.322 1023.25 887.937 C 1043.2 910.526 1067.36 945.626 1086.86 970.038 C 1099.54 985.908 1069.71 1018.17 1048.72 996.4 C 1031.03 978.06 1016.67 955.596 1000.74 935.144 L 998.615 932.702 C 987.833 936.774 954.337 1002.22 935.125 1002.6 C 928.866 1003.63 921.843 1002.24 916.608 997.796 C 894.675 979.161 920.059 955.106 931.292 940.607 C 944.853 922.944 958.674 905.483 972.752 888.229 C 974.605 866.22 968.399 848.163 992.513 838.14 z"/>
<path transform="translate(0,0)" fill="rgb(0,0,0)" d="M 684.094 838.192 C 719.313 836.029 716.344 860.31 715.955 886.979 C 729.32 903.712 742.555 920.549 755.659 937.487 C 764.12 948.298 773.544 959.373 780.453 971.248 C 782.35 974.509 782.351 978.203 782.244 981.835 C 781.862 994.846 769.527 1004.66 756.801 1002.81 C 743.047 1000.8 735.649 989.284 727.894 979.041 C 716.54 964.045 705.184 948.974 693.833 933.942 C 692.311 931.749 693.254 932.651 691.012 931.23 C 675.029 946.03 648.632 997.219 629.302 1002.32 C 623.329 1003.95 616.945 1003.04 611.671 999.794 C 606.248 996.453 602.412 991.055 601.039 984.835 C 597.921 970.359 609.881 959.08 618.127 948.561 L 648.534 909.866 C 653.995 902.964 661.542 894.559 665.991 887.156 C 665.735 866.352 661.733 848.202 684.094 838.192 z"/>
<path transform="translate(0,0)" fill="rgb(0,0,0)" d="M 837.225 835.373 C 870.437 831.691 864.244 881.055 864.004 902.01 C 879.621 901.7 909.723 897.108 910.15 920.44 C 910.669 948.757 883.629 944.296 864.07 943.876 L 864.038 982.644 C 852.428 1016.21 812.961 1005.8 812.518 979.866 C 811.821 938.969 810.915 895.296 813.017 854.342 C 813.641 842.191 826.705 836.424 837.225 835.373 z"/>
<path transform="translate(0,0)" fill="rgb(0,0,0)" d="M 1146.02 835.285 C 1180.5 832.022 1173.26 880.216 1173.06 901.975 C 1182.14 901.824 1192.1 901.591 1200.23 901.863 C 1220.74 902.551 1225.41 924.702 1213.13 938.018 C 1204.67 947.18 1183.33 943.995 1172.94 943.928 C 1173.16 956.777 1173.09 969.63 1172.74 982.476 C 1165.64 1014.63 1124.76 1004.07 1123.48 986.157 C 1120.9 947.41 1123.02 907.954 1122.42 869.068 C 1122.12 850.345 1125.23 838.494 1146.02 835.285 z"/>
<path transform="translate(0,0)" fill="rgb(0,0,0)" d="M 2040.06 952.037 L 2039.9 893.742 C 2039.87 877.447 2037 855.656 2048 842.993 L 2048 1120.41 C 2037.14 1104.76 2039.88 1084.86 2039.92 1066.46 L 2040.13 1001.94 C 2027.05 1002.3 2010.34 1004.76 2000.66 995.663 C 1995.56 990.807 1992.74 984.023 1992.9 976.982 C 1993.38 948.453 2020.68 951.635 2040.06 952.037 z"/>
</svg>