<svg version="1.1" xmlns="http://www.w3.org/2000/svg" style="display: block;" viewBox="0 0 2048 1365" width="1536" height="1024" preserveAspectRatio="none">
<path transform="translate(0,0)" fill="rgb(0,0,0)" d="M 287.086 523.547 C 298.07 522.349 332.542 522.756 345.277 522.979 C 379.256 524.568 416.949 519.717 450.352 526.008 C 502.087 536.033 538.677 580.298 545.382 631.508 C 547.005 643.903 546.036 654.324 546.952 666.1 C 553.004 743.933 511.814 801.154 430.245 811.588 C 416.557 813.923 379.004 811.859 363.432 811.872 C 309.381 811.916 255.795 819.507 212.84 779.559 C 188.413 756.843 174.998 728.192 173.478 694.395 C 172.052 646.326 169.165 600.218 204.689 562.456 C 228.253 537.407 253.159 525.378 287.086 523.547 z M 437.222 770.545 C 503.31 757.62 510.213 707.245 506.886 650.984 C 505.071 620.296 495.336 593.35 468.945 576.217 C 459.264 569.957 448.37 565.813 436.976 564.057 C 425.061 562.153 409.664 562.646 397.363 562.651 L 340.399 562.71 C 330.27 562.693 288.212 562.003 281.003 563.305 C 212.773 573.908 205.006 644.743 212.421 700.575 C 217.06 735.501 244.822 765.901 280.581 770.241 C 308.49 773.629 337.352 771.187 365.471 771.918 C 383.33 771.928 421.628 772.923 437.222 770.545 z"/>
<path transform="translate(0,0)" fill="rgb(0,0,0)" d="M 294.674 613.133 C 321.065 612.086 317.652 630.545 317.295 650.194 C 324.474 650.195 344.186 648.343 350.779 653.995 C 360.025 661.922 356.745 679.033 344.333 681.928 C 337.693 683.477 325.161 682.831 317.182 682.757 C 317.32 690.401 317.124 696.279 316.705 703.867 C 313.431 709.174 311.448 711.098 306.256 714.138 C 282.01 717.942 282.369 700.559 283.695 682.688 C 274.6 682.735 258.482 684.577 251.381 678.633 C 244.809 673.134 245.837 659.512 252.021 654.042 C 258.546 648.271 274.9 650.083 283.187 650.162 C 283.116 634.916 279.431 621.425 294.674 613.133 z"/>
<path transform="translate(0,0)" fill="rgb(0,0,0)" d="M 429.104 686.58 C 439.552 683.594 450.432 689.692 453.338 700.163 C 456.244 710.633 450.063 721.466 439.571 724.292 C 429.191 727.087 418.5 720.987 415.625 710.63 C 412.751 700.272 418.769 689.534 429.104 686.58 z"/>
<path transform="translate(0,0)" fill="rgb(0,0,0)" d="M 429.831 613.52 C 436.602 611.877 443.733 614.001 448.501 619.08 C 453.27 624.16 454.939 631.412 452.871 638.065 C 450.804 644.718 445.319 649.746 438.511 651.229 C 428.157 653.484 417.915 646.99 415.538 636.663 C 413.161 626.337 419.533 616.019 429.831 613.52 z"/>
<path transform="translate(0,0)" fill="rgb(0,0,0)" d="M 1456.56 524.293 C 1501.5 516.63 1530.16 555.114 1531.58 596.122 C 1533.33 646.779 1546.56 750.048 1480.75 765.283 C 1406.54 774.587 1401.42 709.429 1402.71 654.249 C 1403.81 607.347 1393.56 534.973 1456.56 524.293 z M 1473.83 720.04 C 1480.51 716.803 1484.84 712.53 1487.38 705.398 C 1494.16 686.412 1493.67 599.602 1484.94 581.821 C 1482.49 576.836 1478.41 572.762 1473.09 570.975 C 1469.61 569.807 1465.71 569.828 1462.09 570.141 C 1455.6 573.12 1451.17 575.873 1448.49 582.907 C 1441.51 601.249 1441.31 691.816 1449.48 709.134 C 1451.75 713.94 1455.83 718.048 1460.93 719.734 C 1465.28 721.169 1469.42 720.969 1473.83 720.04 z"/>
<path transform="translate(0,0)" fill="rgb(0,0,0)" d="M 1675.59 530.404 C 1688.56 528.69 1711.81 529.882 1725.83 529.637 C 1744.15 529.584 1759.5 529.42 1778.05 530.227 C 1796.45 531.028 1803.26 551.669 1793.63 565.463 C 1791.69 568.229 1784.27 572.207 1780.62 572.563 C 1754.82 575.078 1728.39 573.301 1702.32 573.953 C 1701.8 589.901 1702.15 607.709 1702.16 623.798 C 1715.22 624.073 1767.55 620.116 1773.68 630.18 C 1800.63 674.414 1725.24 664.96 1702.47 664.912 C 1702.94 678.571 1702.67 694.438 1702.72 708.25 C 1702.78 711.715 1702.45 716.255 1702.28 719.816 C 1719.77 720.106 1771.49 716.982 1784.78 721.42 C 1790.26 723.25 1795.13 726.871 1797.52 732.264 C 1800.06 737.981 1799.58 745.594 1797.34 751.345 C 1795.51 756.052 1791.31 759.74 1786.72 761.67 C 1777.14 765.697 1699.46 765.068 1685.27 763.618 C 1680.26 763.107 1675.14 761.885 1670.51 759.88 C 1664.43 757.24 1661.18 752.972 1658.81 746.89 C 1657.26 742.911 1656.49 738.907 1656.22 734.65 C 1654.37 705.377 1655.95 675.048 1655.96 645.678 C 1655.97 616.224 1654.38 585.763 1656.25 556.406 C 1656.53 552.041 1656.95 548.24 1658.79 544.218 C 1662.28 536.591 1668.05 533.296 1675.59 530.404 z"/>
<path transform="translate(0,0)" fill="rgb(0,0,0)" d="M 1170.59 678.329 C 1202.49 676.327 1241.5 678.673 1274.21 677.829 C 1299.58 678.332 1325.15 676.696 1350.43 678.879 C 1377.75 681.237 1387.68 715.913 1370.81 734.742 C 1367.13 738.786 1362.31 741.618 1356.98 742.863 C 1348.67 744.734 1325.55 744.085 1316.2 744.062 L 1242.4 743.912 C 1232.69 743.885 1199.17 741.307 1193.18 748.102 L 1193.77 750.687 C 1198.6 753.836 1232.3 752.572 1240.49 752.571 L 1330.39 752.522 C 1340.27 752.525 1362.48 751.443 1370.6 754.204 C 1381.83 758.023 1380.96 775.803 1366.62 781.124 L 1248.02 781.192 C 1226.68 781.184 1205.29 781.327 1184.05 780.845 C 1171.08 781.079 1158.82 771.889 1156.78 758.597 C 1148.73 706.245 1205.19 715.751 1235.49 715.776 L 1311.36 715.802 C 1318.42 715.808 1335.79 716.667 1341.73 715.35 C 1344.64 712.905 1343.81 714.181 1344.86 710.535 C 1344.49 709.904 1344.12 709.274 1343.75 708.644 C 1303.51 706.761 1240.92 708.813 1203.27 708.092 C 1170.39 707.463 1181.44 710.327 1163.83 705.529 C 1153.63 702.748 1153.84 682.985 1170.59 678.329 z"/>
<path transform="translate(0,0)" fill="rgb(0,0,0)" d="M 1185.55 524.255 C 1213.42 523.233 1208.06 556.002 1207.9 574.349 C 1257.25 575.608 1307.62 573.196 1357.03 574.909 C 1374.77 575.524 1375.27 605.774 1358.15 608.491 C 1348.44 610.031 1336.89 609.463 1326.89 609.448 L 1281.49 609.563 L 1281.25 625.037 C 1298.31 625.159 1367.39 622.478 1377.17 627.794 C 1381.12 629.945 1383.64 633.73 1384.74 638.022 C 1386 642.899 1385.9 650.362 1383.12 654.658 C 1379.88 659.678 1374.95 661.21 1369.49 662.486 C 1302.97 664.937 1233 661.472 1166.28 662.202 C 1161.14 662.258 1153.01 657.146 1151.7 652.209 C 1143.05 619.632 1174.85 624.944 1194.78 624.993 L 1244.63 624.997 C 1244.23 618.649 1244.31 615.618 1244.8 609.25 C 1230.63 609.349 1183.15 612.135 1173.58 606.394 C 1169.65 604.036 1166.89 600.504 1165.84 596.024 C 1163.48 585.943 1162.98 541.285 1168.43 533.238 C 1172.62 527.051 1178.7 525.501 1185.55 524.255 z"/>
<path transform="translate(0,0)" fill="rgb(0,0,0)" d="M 1002.31 682.498 C 1035.48 682.442 1107.4 679.573 1108.19 727.863 C 1109.02 778.463 1039.86 777.93 1004.25 777.897 C 973.549 777.975 930.781 779.639 906.304 757.72 C 890.931 743.954 890.996 715.563 906.023 701.601 C 929.716 679.587 972.201 682.56 1002.31 682.498 z M 1038.24 741.893 C 1046.16 741.045 1067.95 740.325 1066.3 727.632 C 1066.08 725.993 1063.86 723.575 1062.48 722.778 C 1047.45 713.485 983.415 714.794 965.711 716.416 C 957.201 717.243 936.023 718.776 935.559 730.663 C 941.429 746.96 1020.99 742.855 1038.24 741.893 z"/>
<path transform="translate(0,0)" fill="rgb(0,0,0)" d="M 682.6 683.4 C 689.629 682.474 715.309 682.365 723.015 682.504 C 754.846 683.365 793.064 678.985 820.408 698.622 C 838.383 711.53 841.192 736.253 827.518 753.345 C 814.982 769.014 794 774.149 774.789 776.273 C 738.617 781.026 628.541 786.255 623.462 734.699 C 619.821 697.742 652.092 686.372 682.6 683.4 z M 766.501 741.787 C 775.201 740.799 795.731 739.241 794.202 726.64 C 783.723 712.53 710.892 714.829 692.741 716.411 C 683.538 717.32 663.671 718.653 665.864 732.032 C 674.19 746.68 749.009 742.86 766.501 741.787 z"/>
<path transform="translate(0,0)" fill="rgb(0,0,0)" d="M 1852.01 524.176 C 1856.41 523.923 1860.42 524.133 1864.53 525.84 C 1870.21 528.2 1874.58 532.33 1876.75 538.158 C 1879.32 545.096 1878.88 730.072 1878.06 751.979 C 1877.93 755.439 1878.02 760.317 1876.31 763.396 C 1873.28 768.841 1868.24 772.612 1862.29 774.278 C 1856.15 775.997 1849.53 775.713 1843.97 772.394 C 1837.62 768.61 1835.02 763.941 1833.31 756.879 C 1832.73 726.813 1833.17 695.165 1833.12 664.974 C 1821.1 664.967 1802.13 666.841 1792.65 658.535 C 1784.66 651.54 1784.35 632.504 1792.1 625.134 C 1801.5 616.185 1820.84 618.646 1832.94 618.912 C 1833.07 602.308 1829.59 545.066 1836.35 533.702 C 1839.85 527.821 1845.83 525.866 1852.01 524.176 z"/>
<path transform="translate(0,0)" fill="rgb(0,0,0)" d="M 1599.24 524.23 C 1615.99 524.73 1622.74 532.82 1622.79 549.244 C 1622.95 595.247 1622.91 641.253 1622.93 687.257 L 1622.93 733.932 C 1622.93 750.57 1625.98 759.5 1614.05 772.272 L 1604.26 775.041 C 1579.37 774.922 1578.73 762.32 1578.76 741.785 C 1578.84 676.992 1578.43 612.171 1579 547.385 C 1579.13 532.468 1585.45 527.07 1599.24 524.23 z"/>
<path transform="translate(0,0)" fill="rgb(0,0,0)" d="M 952.016 525.202 C 954.068 525.053 956.126 524.998 958.183 525.038 C 967.023 525.179 970.453 528.137 976.245 534.116 C 979.945 545.934 978.883 557.33 978.777 569.764 C 989.926 583.247 1000.97 596.815 1011.91 610.468 C 1021.44 622.262 1051.17 650.595 1022.25 661.287 C 1016.33 663.477 1005.48 661.861 1000.83 657.296 C 985.735 642.482 972.247 624.455 958.761 607.93 L 956.973 605.765 C 943.323 609.344 913.565 680.482 886.358 658.581 C 868.26 644.014 894.577 620.201 904.2 607.744 C 914.063 594.976 925.195 581.271 935.916 569.291 C 936.952 550.64 931.2 533.263 952.016 525.202 z"/>
<path transform="translate(0,0)" fill="rgb(0,0,0)" d="M 680.901 525.259 C 711.011 523.441 707.12 544.853 706.898 566.983 C 722.887 591.139 748.974 614.37 763.196 639.569 C 771.249 653.837 746.63 672.321 731.035 656.911 C 715.62 641.679 703.037 623.968 689.581 606.954 L 687.664 604.838 C 675.299 605.812 642.996 681.128 616.009 658.735 C 598.773 644.433 623.925 619.908 633.088 608.66 C 643.908 595.507 654.641 582.283 665.286 568.989 C 665.586 550.571 660.855 533.986 680.901 525.259 z"/>
<path transform="translate(0,0)" fill="rgb(0,0,0)" d="M 800.926 525.253 C 836.241 521.235 828.403 556.881 828.084 581.048 C 839.94 581.227 858.049 578.291 867.886 585.732 C 875.037 591.076 875.159 606.513 868.795 612.426 C 859.911 620.681 839.78 618.281 828.15 618.28 L 828.092 635.75 C 828.2 641.346 828.681 647.49 827.542 652.989 C 826.507 657.989 824.28 662.434 819.746 665.127 C 814.316 668.351 806.364 669.374 800.332 667.43 C 795.265 665.797 791.249 662.416 788.937 657.582 C 785.526 650.447 785.11 545.291 788.231 537.187 C 790.745 530.659 794.937 528.052 800.926 525.253 z"/>
<path transform="translate(0,0)" fill="rgb(0,0,0)" d="M 1074.87 525.264 C 1109.95 521.711 1102.33 556.915 1101.65 581.036 C 1109.93 581.138 1135.13 578.499 1142.8 585.917 C 1152.54 595.33 1149.07 615.212 1133.85 617.497 C 1124.81 618.853 1112.19 618.227 1101.87 618.179 L 1101.96 638.25 C 1101.99 642.945 1102.21 648.565 1101.45 653.163 C 1098.43 671.372 1073.25 673.518 1064.19 659.178 C 1062.47 656.448 1061.5 650.168 1061.51 646.893 C 1061.63 610.729 1059.62 573.654 1062.55 537.708 C 1062.99 532.366 1070.58 527.498 1074.87 525.264 z"/>
</svg>